<svg width="48" height="48" viewBox="0 0 48 48" fill="none" xmlns="http://www.w3.org/2000/svg">
<rect width="48" height="48" fill="#323238"/>
<g clip-path="url(#clip0_61385:209)">
<path fill-rule="evenodd" clip-rule="evenodd" d="M36.5501 35H31.4488V26.5629C31.4488 24.3552 30.6509 22.8471 28.8943 22.8471C28.3563 22.8475 27.8319 23.0404 27.3947 23.3986C26.9575 23.7569 26.6293 24.2625 26.4563 24.8447C26.3489 25.2774 26.3114 25.7288 26.3456 26.1768V35H21.2876C21.2876 35 21.3531 20.0542 21.2876 18.6957H26.3456V21.2543C26.645 20.1356 28.261 18.5384 30.8396 18.5384C34.0399 18.5384 36.554 20.8836 36.554 25.9337L36.5501 35ZM16.169 16.6562H16.1363C15.7946 16.6873 15.4509 16.6374 15.1269 16.5096C14.8029 16.3818 14.5055 16.1789 14.2533 15.9136C14.0011 15.6482 13.7995 15.3263 13.6613 14.9678C13.5231 14.6093 13.4511 14.2221 13.4499 13.8303C13.3946 13.1988 13.5082 12.563 13.7756 12.0068C14.0429 11.4506 14.4516 11.0001 14.9476 10.7148C15.4436 10.4294 16.0037 10.3226 16.5539 10.4085C17.1041 10.4944 17.6186 10.7689 18.0295 11.1957C18.4404 11.6226 18.7284 12.1819 18.8555 12.7997C18.9825 13.4175 18.9428 14.0647 18.7414 14.6562C18.54 15.2476 18.1864 15.7553 17.7273 16.1124C17.2683 16.4695 16.7253 16.6591 16.17 16.6562H16.169ZM14.0322 18.7001H18.5349V35.0044H14.0322V18.7001Z" fill="white"/>
</g>
<defs>
<clipPath id="clip0_61385:209">
<rect width="24" height="24" fill="white" transform="translate(13 11)"/>
</clipPath>
</defs>
</svg>
