<svg width="48" height="48" viewBox="0 0 48 48" fill="none" xmlns="http://www.w3.org/2000/svg">
<rect width="48" height="48" fill="#323238"/>
<path d="M35.996 21.71C35.7668 21.729 35.537 21.739 35.3065 21.7399C34.0633 21.7401 32.8396 21.4753 31.7459 20.9695C30.6522 20.4637 29.7229 19.7328 29.0419 18.8427V28.7083C29.0419 32.7354 25.227 36 20.521 36C15.815 36 12 32.7354 12 28.7083C12 24.6812 15.815 21.4167 20.521 21.4167C20.6988 21.4167 20.8727 21.4303 21.0476 21.4397V25.033C20.8727 25.015 20.7008 24.9877 20.521 24.9877C18.1191 24.9877 16.1721 26.6539 16.1721 28.7092C16.1721 30.7645 18.1191 32.4307 20.521 32.4307C22.9233 32.4307 25.0448 30.8111 25.0448 28.7554L25.0867 12H29.1039C29.4827 15.0827 32.3874 17.4905 36 17.7165V21.71" fill="white"/>
</svg>
